<?xml version="1.0" encoding="utf-8"?>
<!-- Generator: Adobe Illustrator 16.0.0, SVG Export Plug-In . SVG Version: 6.00 Build 0)  -->
<!DOCTYPE svg PUBLIC "-//W3C//DTD SVG 1.1//EN" "http://www.w3.org/Graphics/SVG/1.1/DTD/svg11.dtd">
<svg version="1.1" id="Layer_1" xmlns="http://www.w3.org/2000/svg" xmlns:xlink="http://www.w3.org/1999/xlink" x="0px" y="0px"
	 width="20px" height="20px" viewBox="0 0 20 20" enable-background="new 0 0 20 20" xml:space="preserve">
<path fill="#FFFFFF" stroke="#D31A53" stroke-width="3" stroke-miterlimit="10" d="M14.5,9.224c0,2.361-1.915,4.276-4.276,4.276
	H9.776C7.415,13.5,5.5,11.585,5.5,9.224V7.776C5.5,5.415,7.415,3.5,9.776,3.5h0.447c2.361,0,4.276,1.915,4.276,4.276V9.224z"/>
<g>
	<path fill="#D31A53" d="M18,18c0,0.553-0.447,1-1,1H2c-0.552,0-1-0.447-1-1V9c0-0.552,0.448-1,1-1h15c0.553,0,1,0.448,1,1V18z"/>
	<path fill="none" stroke="#D31A53" stroke-miterlimit="10" d="M18.5,17.5c0,0.553-0.447,1-1,1h-15c-0.552,0-1-0.447-1-1v-9
		c0-0.552,0.448-1,1-1h15c0.553,0,1,0.448,1,1V17.5z"/>
</g>
<ellipse fill="#FFFFFF" stroke="#D31A53" stroke-miterlimit="10" cx="10.223" cy="12.897" rx="2.671" ry="2.706"/>
</svg>
