<?xml version="1.0" encoding="utf-8"?>
<!-- Generator: Adobe Illustrator 16.0.0, SVG Export Plug-In . SVG Version: 6.00 Build 0)  -->
<!DOCTYPE svg PUBLIC "-//W3C//DTD SVG 1.1//EN" "http://www.w3.org/Graphics/SVG/1.1/DTD/svg11.dtd">
<svg version="1.1" id="Layer_1" xmlns="http://www.w3.org/2000/svg" xmlns:xlink="http://www.w3.org/1999/xlink" x="0px" y="0px"
	 width="70px" height="70px" viewBox="0 0 70 70" enable-background="new 0 0 70 70" xml:space="preserve">
<g>
	<path fill="#FBB03B" d="M63,65c0,1.1-0.9,2-2,2H13c-1.1,0-2-0.9-2-2V38c0-1.1,0.9-2,2-2h48c1.1,0,2,0.9,2,2V65z"/>
</g>
<g>
	<path fill="none" stroke="#BC2828" stroke-width="4" stroke-miterlimit="10" d="M37.539,25.656
		c-3.344,3.317,12.717,0.707,15.804-0.717c3.089-1.424,4.517-4.912,3.092-7.999c-1.425-3.088-5.003-4.265-8.091-2.84
		C45.255,15.524,39.954,23.261,37.539,25.656z"/>
	<path fill="none" stroke="#BC2828" stroke-width="4" stroke-miterlimit="10" d="M35.826,25.656
		c3.346,3.317-12.715,0.707-15.803-0.717s-4.516-4.912-3.091-7.999c1.424-3.088,5.002-4.265,8.091-2.84
		C28.111,15.524,33.412,23.261,35.826,25.656z"/>
	<path fill="none" stroke="#BC2828" stroke-width="4" stroke-miterlimit="10" d="M35.558,23.696
		c2.776,4.284,7.201-10.501,7.586-13.881c0.384-3.379-1.855-6.409-5.234-6.793c-3.38-0.384-6.243,2.064-6.626,5.444
		C30.899,11.844,33.708,20.842,35.558,23.696z"/>
</g>
<rect x="11" y="40" fill="#ED972F" width="52" height="8"/>
<rect x="11" y="40" fill="#D8872E" width="52" height="4"/>
<rect x="31" y="28" fill="#DB2E2E" width="12" height="39"/>
<rect x="34" y="28" fill="#BC2828" width="6" height="37"/>
<polygon fill="#EFA13A" points="53.989,58.447 55.508,60.284 57.881,60.075 56.604,62.086 57.537,64.279 55.229,63.686 
	53.432,65.25 53.282,62.873 51.239,61.646 53.455,60.771 "/>
<polygon fill="#EFA13A" points="46.214,55.081 47.732,56.918 50.106,56.709 48.828,58.72 49.762,60.914 47.453,60.319 
	45.655,61.885 45.508,59.507 43.464,58.281 45.68,57.404 "/>
<polygon fill="#EFA13A" points="53.989,49.672 55.508,51.509 57.881,51.3 56.604,53.311 57.537,55.504 55.229,54.909 53.432,56.475 
	53.282,54.097 51.239,52.871 53.455,51.994 "/>
<polygon fill="#EFA13A" points="22.191,57.867 23.709,59.704 26.083,59.494 24.805,61.506 25.738,63.699 23.43,63.106 
	21.632,64.671 21.485,62.291 19.44,61.065 21.657,60.19 "/>
<polygon fill="#EFA13A" points="14.415,54.502 15.933,56.338 18.308,56.128 17.03,58.14 17.963,60.333 15.655,59.74 13.858,61.305 
	13.708,58.927 11.666,57.701 13.881,56.824 "/>
<polygon fill="#EFA13A" points="22.191,49.091 23.709,50.928 26.083,50.718 24.805,52.73 25.738,54.923 23.43,54.329 21.632,55.895 
	21.485,53.516 19.44,52.29 21.657,51.414 "/>
<g>
	<path fill="#FBB03B" d="M66,39c0,0.55-0.45,1-1,1H8c-0.55,0-1-0.45-1-1V29c0-0.55,0.45-1,1-1h57c0.55,0,1,0.45,1,1V39z"/>
</g>
</svg>
